<svg xmlns="http://www.w3.org/2000/svg" viewBox="0 0 1000 1000"><defs><style>.cls-1{fill:#fff;}</style></defs><g id="Layer_2" data-name="Layer 2"><path class="cls-1" d="M639,782.13H579.41L561,725.45l-18.41,56.68H483l48.21,35-18.42,56.67,48.21-35,48.21,35-18.42-56.67Zm-78,39.35-21.93,15.94,8.38-25.78L525.52,795.7h27.1L561,769.93l8.38,25.77h27.1l-21.93,15.94,8.38,25.78Z"/><path class="cls-1" d="M771,705.38H719L703,656l-16,49.38H635l42,30.52-16,49.37,42-30.51,42,30.51L729,735.9Zm-68,34.29-19.11,13.88,7.3-22.46-19.11-13.88H695.7l7.3-22.46,7.3,22.46h23.62l-19.11,13.88,7.3,22.46Z"/><path class="cls-1" d="M462.46,753.53H387.24L364,682l-23.24,71.53H265.54l60.85,44.21-23.24,71.53L364,825.06l60.85,44.21-23.24-71.53ZM364,803.21l-27.68,20.11,10.57-32.54-27.68-20.11h34.22L364,738.13l10.57,32.54h34.22l-27.68,20.11,10.57,32.54Z"/><path class="cls-1" d="M555.47,348c48.39,32,86.32,86.89,86.32,149.25,0,.61,0,1.22,0,1.83l-104-14.35a73.22,73.22,0,0,0-38.51-51.17L511.76,348H458.19l-11.57,79A74.78,74.78,0,0,0,397,465.31l-106.57-14.7C302.05,408,334.65,371.72,370.52,348H160L32,646l338.41.41c-46.76-31-83.73-83.33-86.08-143.13l107.58,14.84a73.51,73.51,0,0,0,35,43.32L414.37,647h53.57l11.36-77.54a75.06,75.06,0,0,0,48.2-32.64l105.82,14.59c-13.29,39.43-44.23,72.93-78.08,95.24L845,647,974,348ZM821.68,625,787,599.81,752.32,625l13.25-40.77L730.89,559h42.86L787,518.27,800.25,559h42.86l-34.68,25.19Zm-6.25-195.77L828.68,470,794,444.81,759.32,470l13.25-40.77L737.89,404h42.86L794,363.27,807.25,404h42.86Z"/><polygon class="cls-1" points="800.02 413.81 794 395.26 787.98 413.81 768.48 413.81 784.25 425.27 778.23 443.81 794 432.35 809.77 443.81 803.75 425.27 819.52 413.81 800.02 413.81"/><polygon class="cls-1" points="793.02 568.81 787 550.26 780.98 568.81 761.48 568.81 777.25 580.27 771.23 598.81 787 587.35 802.77 598.81 796.75 580.27 812.52 568.81 793.02 568.81"/></g><g id="Layer_3" data-name="Layer 3"><path class="cls-1" d="M313.19,233.56H283.8l-9.08-27.95-9.08,27.95H236.25L260,250.84l-9.08,28,23.77-17.28,23.78,17.28-9.08-28ZM274.72,253l-10.81,7.86L268,248.12l-10.82-7.86h13.37l4.13-12.72,4.13,12.72h13.37l-10.81,7.86,4.13,12.71Z"/><path class="cls-1" d="M465.4,160.84H433.56l-9.84-30.28-9.84,30.28H382l25.76,18.72L398,209.84l25.76-18.72,25.76,18.72-9.84-30.28Zm-41.68,21L412,190.38l4.48-13.77-11.72-8.51h14.49l4.47-13.78,4.48,13.78h14.48L431,176.61l4.48,13.77Z"/><path class="cls-1" d="M641,167H599.54l-12.82-39.45L573.9,167H532.43L566,191.39l-12.81,39.45,33.55-24.38,33.56,24.38-12.82-39.45Zm-54.3,27.4L571.46,205.5l5.83-17.95L562,176.46h18.87l5.83-17.94,5.83,17.94h18.87l-15.26,11.09L602,205.5Z"/><path class="cls-1" d="M781,253.89H735.71l-14-43-14,43H662.46l36.63,26.61-14,43.06L721.72,297l36.63,26.61-14-43.06ZM721.72,283.8l-16.66,12.1,6.36-19.58-16.66-12.11h20.6l6.36-19.59,6.37,19.59h20.59L732,276.32l6.36,19.58Z"/></g></svg>